<svg width="80" height="28" viewBox="0 0 80 28" fill="none" xmlns="http://www.w3.org/2000/svg">
<g clip-path="url(#clip0_3540_1739)">
<path d="M7.81897 12.5673C7.81897 10.9307 7.27372 10.1265 5.93239 10.1265C4.59106 10.1265 3.87132 11.2818 3.87132 12.624V21.566H0V6.71166H2.99891L3.39695 8.7787H3.47328C4.19302 7.43654 5.38713 6.33789 7.26827 6.33789C9.1494 6.33789 10.4198 7.30629 11.1123 8.86365C12.0065 7.30629 13.3206 6.33789 15.06 6.33789C18.0643 6.33789 19.4766 8.48422 19.4766 11.7065V21.5604H15.6052V12.5673C15.6052 10.9307 15.0872 10.1265 13.7186 10.1265C12.3501 10.1265 11.6848 11.2025 11.6848 12.4371V21.566H7.81352V12.573L7.81897 12.5673Z" fill="#F8F8F8"/>
<path d="M26.5377 9.02221C27.4319 7.43654 29.0458 6.33789 31.0306 6.33789C34.2312 6.33789 37.1865 9.40164 37.1865 14.1247C37.1865 18.8477 34.3294 21.9398 31.1287 21.9398C29.3403 21.9398 27.6064 20.8921 26.7612 19.3914V27.2065H22.8899V6.71166H26.1396L26.5377 9.02221ZM33.2879 14.1247C33.2879 11.7915 31.8757 10.0982 29.9891 10.0982C28.1025 10.0982 26.7121 11.7632 26.7121 14.153C26.7121 16.5428 28.1025 18.1795 29.9619 18.1795C31.8212 18.1795 33.2879 16.4636 33.2879 14.1247Z" fill="#F8F8F8"/>
<path d="M49.4548 19.2496C48.5605 20.8353 46.9466 21.9339 44.9128 21.9339C41.8103 21.9339 38.8059 18.8192 38.8059 14.1755C38.8059 9.5317 41.8103 6.33203 44.9128 6.33203C46.952 6.33203 48.5605 7.43634 49.4548 9.01635L49.8528 6.7058H53.1025V21.5545H49.8528L49.4548 19.244V19.2496ZM46.0306 10.0923C44.1222 10.0923 42.7045 11.8083 42.7045 14.1471C42.7045 16.486 44.1222 18.1736 46.0306 18.1736C47.939 18.1736 49.2803 16.4804 49.2803 14.1188C49.2803 11.7573 47.8899 10.0923 46.0306 10.0923Z" fill="#F8F8F8"/>
<path d="M55.7415 6.71012H58.8221L59.2202 8.93573H59.2693C60.1907 7.11221 61.7774 6.51758 63.0152 6.51758C63.4132 6.51758 63.7349 6.57421 64.0348 6.65349V10.5724C62.0228 10.1137 59.6182 10.7876 59.6182 14.2251V21.5532H55.7469V6.71012H55.7415Z" fill="#F8F8F8"/>
<path d="M70.1744 14.4466V21.5595H66.2976V0H70.1744V13.4782L75.2344 6.71081H79.8254L74.3892 13.7727L79.9999 21.5595H75.2344L70.1744 14.4466Z" fill="#F8F8F8"/>
</g>
<defs>
<clipPath id="clip0_3540_1739">
<rect width="80" height="27.2" fill="white"/>
</clipPath>
</defs>
</svg>
