<svg width="160" height="47" viewBox="0 0 160 47" fill="none" xmlns="http://www.w3.org/2000/svg">
<g clip-path="url(#clip0_3059_7802)">
<path d="M14.9961 21.6616C14.9961 18.8404 13.9503 17.4542 11.3778 17.4542C8.80523 17.4542 7.42484 19.4457 7.42484 21.7592V37.1733H0V11.5678H5.75163L6.51503 15.1309H6.66144C8.04183 12.8173 10.332 10.9235 13.9399 10.9235C17.5477 10.9235 19.9843 12.5928 21.3124 15.2773C23.0275 12.5928 25.5477 10.9235 28.8837 10.9235C34.6458 10.9235 37.3543 14.6233 37.3543 20.1778V37.1635H29.9294V21.6616C29.9294 18.8404 28.9359 17.4542 26.3111 17.4542C23.6863 17.4542 22.4105 19.309 22.4105 21.4371V37.1733H14.9856V21.6714L14.9961 21.6616Z" fill="#00AD59"/>
<path d="M50.8967 15.5507C52.6117 12.8173 55.7072 10.9235 59.5137 10.9235C65.6523 10.9235 71.3202 16.2047 71.3202 24.3461C71.3202 32.4876 65.8405 37.8176 59.7019 37.8176C56.2719 37.8176 52.9464 36.0116 51.3255 33.4247V46.8961H43.9006V11.5678H50.1333L50.8967 15.5507ZM63.8431 24.3461C63.8431 20.3242 61.1346 17.4054 57.5163 17.4054C53.898 17.4054 51.2314 20.2754 51.2314 24.395C51.2314 28.5145 53.898 31.3357 57.464 31.3357C61.03 31.3357 63.8431 28.3778 63.8431 24.3461Z" fill="white"/>
<path d="M94.8496 33.1808C93.1346 35.9141 90.0392 37.8079 86.1385 37.8079C80.1882 37.8079 74.4261 32.4389 74.4261 24.4341C74.4261 16.4294 80.1882 10.9139 86.1385 10.9139C90.0496 10.9139 93.1346 12.8175 94.8496 15.541L95.613 11.5582H101.846V37.1539H95.613L94.8496 33.171V33.1808ZM88.2823 17.3958C84.6222 17.3958 81.9032 20.3536 81.9032 24.3853C81.9032 28.417 84.6222 31.326 88.2823 31.326C91.9424 31.326 94.515 28.4072 94.515 24.3365C94.515 20.2658 91.8483 17.3958 88.2823 17.3958Z" fill="white"/>
<path d="M106.907 11.5679H112.816L113.579 15.4043H113.673C115.44 12.261 118.484 11.236 120.857 11.236C121.621 11.236 122.238 11.3336 122.813 11.4702V18.2255C118.954 17.4348 114.342 18.5964 114.342 24.5219V37.1538H106.918V11.5679H106.907Z" fill="white"/>
<path d="M134.588 24.9026V37.1636H127.153V0H134.588V23.2333L144.293 11.5679H153.098L142.672 23.741L153.433 37.1636H144.293L134.588 24.9026Z" fill="white"/>
</g>
<defs>
<clipPath id="clip0_3059_7802">
<rect width="160" height="46.8571" fill="white"/>
</clipPath>
</defs>
</svg>
