<svg width="320" height="121" viewBox="0 0 320 121" fill="none" xmlns="http://www.w3.org/2000/svg">
<path d="M15.623 3.21875V20.582H14.1582V11.4805H11.5996V19.6836H10.1934V3.60938H11.5996V10.2109H14.1582V3.21875H15.623ZM7.92773 5.34766V6.61719H2.94727V14.9766C5.33984 14.9668 7 14.8789 8.92383 14.4883L9.06055 15.7773C6.9707 16.207 5.19336 16.2852 2.53711 16.2852H1.42383V5.34766H7.92773ZM31.6387 3.23828V8.96094H34.2559V10.25H31.6387V16.2461H30.1152V3.23828H31.6387ZM28.4551 5.36719V6.61719H18.1035V5.36719H22.5176V3.23828H24.041V5.36719H28.4551ZM23.2793 7.57422C25.7598 7.57422 27.4395 8.84375 27.459 10.8164C27.4395 12.7695 25.7598 14.0195 23.2793 14.0195C20.7793 14.0195 19.0801 12.7695 19.0996 10.8164C19.0801 8.84375 20.7793 7.57422 23.2793 7.57422ZM23.2793 8.78516C21.6387 8.78516 20.5449 9.58594 20.5645 10.8164C20.5449 12.0469 21.6387 12.8281 23.2793 12.8086C24.9004 12.8281 25.9941 12.0469 26.0137 10.8164C25.9941 9.58594 24.9004 8.78516 23.2793 8.78516ZM32.4395 18.9219V20.2109H20.7793V15.2109H22.2832V18.9219H32.4395ZM44.4121 4.74219V12.7891H36.2676V4.74219H44.4121ZM37.7715 6.01172V11.5586H42.9082V6.01172H37.7715ZM49.6855 3.23828V15.7188H48.1621V3.23828H49.6855ZM50.2324 18.7266V19.9961H38.4746V14.5078H39.998V18.7266H50.2324ZM66.4434 4.07812V5.32812C66.4434 6.62695 66.4434 8.17969 66.0137 10.2695H68.5332V11.5195H61.3066V14.7227H66.5605V20.582H65.0176V15.9922H54.2754V14.7227H59.7832V11.5195H52.6348V10.2695H64.4707C64.9199 8.14062 64.9199 6.62695 64.9199 5.32812H54.6465V4.07812H66.4434ZM76.5163 19V5H77.7363L87.3963 17.16H86.7563V5H88.2163V19H86.9963L77.3563 6.84H77.9963V19H76.5163ZM96.7659 19.1C95.7525 19.1 94.8392 18.8733 94.0259 18.42C93.2259 17.9533 92.5925 17.32 92.1259 16.52C91.6592 15.7067 91.4259 14.78 91.4259 13.74C91.4259 12.6867 91.6592 11.76 92.1259 10.96C92.5925 10.16 93.2259 9.53333 94.0259 9.08C94.8259 8.62667 95.7392 8.4 96.7659 8.4C97.8059 8.4 98.7259 8.62667 99.5259 9.08C100.339 9.53333 100.973 10.16 101.426 10.96C101.893 11.76 102.126 12.6867 102.126 13.74C102.126 14.78 101.893 15.7067 101.426 16.52C100.973 17.32 100.339 17.9533 99.5259 18.42C98.7125 18.8733 97.7925 19.1 96.7659 19.1ZM96.7659 17.84C97.5259 17.84 98.1992 17.6733 98.7859 17.34C99.3725 16.9933 99.8325 16.5133 100.166 15.9C100.513 15.2733 100.686 14.5533 100.686 13.74C100.686 12.9133 100.513 12.1933 100.166 11.58C99.8325 10.9667 99.3725 10.4933 98.7859 10.16C98.1992 9.81333 97.5325 9.64 96.7859 9.64C96.0392 9.64 95.3725 9.81333 94.7859 10.16C94.1992 10.4933 93.7325 10.9667 93.3859 11.58C93.0392 12.1933 92.8659 12.9133 92.8659 13.74C92.8659 14.5533 93.0392 15.2733 93.3859 15.9C93.7325 16.5133 94.1992 16.9933 94.7859 17.34C95.3725 17.6733 96.0325 17.84 96.7659 17.84ZM104.872 19.1C104.579 19.1 104.325 18.9933 104.112 18.78C103.912 18.5667 103.812 18.3067 103.812 18C103.812 17.68 103.912 17.42 104.112 17.22C104.325 17.02 104.579 16.92 104.872 16.92C105.165 16.92 105.412 17.02 105.612 17.22C105.825 17.42 105.932 17.68 105.932 18C105.932 18.3067 105.825 18.5667 105.612 18.78C105.412 18.9933 105.165 19.1 104.872 19.1ZM110.236 19V5.6L110.876 6.28H106.936V5H111.676V19H110.236ZM125.721 7.63281C125.701 10.3281 126.951 13.4727 130.018 14.8594L128.455 17.0664C126.482 16.1875 125.135 14.459 124.354 12.418C123.562 14.6836 122.156 16.5781 120.096 17.5352L118.475 15.3086C121.58 13.8633 122.869 10.5625 122.869 7.63281V6.92969H119.217V4.64453H129.197V6.92969H125.721V7.63281ZM133.143 2.94531V9.66406H135.682V11.9883H133.143V20.875H130.33V2.94531H133.143ZM152.596 11.2852V13.4922H136.209V11.2852H143.025V9.9375H138.162V3.72656H150.662V5.91406H140.975V7.73047H150.74V9.9375H145.799V11.2852H152.596ZM144.354 14.2539C148.26 14.2539 150.604 15.4453 150.604 17.5938C150.604 19.7031 148.26 20.9141 144.354 20.9141C140.428 20.9141 138.045 19.7031 138.045 17.5938C138.045 15.4453 140.428 14.2539 144.354 14.2539ZM144.354 16.3828C141.99 16.3828 140.896 16.7734 140.916 17.5938C140.896 18.4336 141.99 18.7656 144.354 18.7656C146.658 18.7656 147.791 18.4336 147.791 17.5938C147.791 16.7734 146.658 16.3828 144.354 16.3828ZM160.135 8.49219C160.135 10.9336 161.268 13.7852 164.197 15.1719L162.654 17.2812C160.779 16.4512 159.5 14.8594 158.768 12.9648C157.996 15.0059 156.648 16.7246 154.627 17.5742L153.104 15.4062C156.111 14.0977 157.322 11.0508 157.342 8.49219V8.04297H153.768V5.81641H157.322V3.375H160.154V5.81641H163.67V8.04297H160.135V8.49219ZM167.713 2.94531V9.78125H170.252V12.125H167.713V20.875H164.9V2.94531H167.713ZM190.838 2.94531V20.875H188.143V11.9883H186.814V20.0742H184.158V3.17969H186.814V9.70312H188.143V2.94531H190.838ZM182.908 4.74219V16.4609H175.701V4.74219H182.908ZM178.338 6.92969V14.2734H180.291V6.92969H178.338ZM208.123 2.94531V20.875H205.428V11.9883H204.1V20.0742H201.443V3.17969H204.1V9.70312H205.428V2.94531H208.123ZM200.193 4.74219V16.4609H192.986V4.74219H200.193ZM195.623 6.92969V14.2734H197.576V6.92969H195.623ZM224.1 2.96484V7.71094H226.443V10.0156H224.1V15.9141H221.287V2.96484H224.1ZM218.572 4.35156V6.57812H213.279V10.7773C216.404 10.748 218.104 10.6309 219.979 10.2305L220.271 12.4766C218.104 12.9258 216.053 13.0234 212.01 13.0234H210.467V4.35156H218.572ZM224.686 18.3359V20.582H212.342V14.4883H215.154V18.3359H224.686ZM234.217 7.63281C234.217 10.4844 235.467 13.5898 238.592 14.8594L237.088 17.0664C235.008 16.207 233.631 14.5273 232.83 12.4766C232.049 14.7227 230.633 16.5781 228.533 17.5156L226.932 15.3086C230.037 13.9414 231.346 10.6602 231.346 7.63281V6.92969H227.674V4.64453H237.811V6.92969H234.217V7.63281ZM242.166 2.94531V20.875H239.334V2.94531H242.166Z" fill="#262626"/>
<g clip-path="url(#clip0_3306_1418)">
<path d="M31.2759 63.7874C31.2759 57.4334 29.0949 54.3113 23.7296 54.3113C18.3642 54.3113 15.4853 58.7965 15.4853 64.0073V98.7236H0V41.0536H11.9956L13.5878 49.0786H13.8931C16.7721 43.8679 21.5485 39.6025 29.0731 39.6025C36.5976 39.6025 41.6794 43.3622 44.4493 49.4084C48.0262 43.3622 53.2824 39.6025 60.2399 39.6025C72.2574 39.6025 77.9062 47.9353 77.9062 60.4455V98.7016H62.4209V63.7874C62.4209 57.4334 60.349 54.3113 54.8746 54.3113C49.4002 54.3113 46.7394 58.4887 46.7394 63.2817V98.7236H31.2541V63.8094L31.2759 63.7874Z" fill="#00AD59"/>
<path d="M106.15 50.024C109.727 43.8679 116.183 39.6025 124.122 39.6025C136.925 39.6025 148.746 51.4971 148.746 69.8336C148.746 88.1702 137.317 100.175 124.515 100.175C117.361 100.175 110.425 96.1072 107.045 90.2809V120.622H91.5593V41.0536H104.558L106.15 50.024ZM133.151 69.8336C133.151 60.7753 127.503 54.2014 119.956 54.2014C112.41 54.2014 106.848 60.6654 106.848 69.9436C106.848 79.2218 112.41 85.5758 119.847 85.5758C127.285 85.5758 133.151 78.914 133.151 69.8336Z" fill="#005033"/>
<path d="M197.819 89.7312C194.242 95.8874 187.786 100.153 179.651 100.153C167.241 100.153 155.224 88.0603 155.224 70.0315C155.224 52.0028 167.241 39.5806 179.651 39.5806C187.808 39.5806 194.242 43.8679 197.819 50.0021L199.411 41.0317H212.41V98.6796H199.411L197.819 89.7092V89.7312ZM184.122 54.1794C176.489 54.1794 170.818 60.8413 170.818 69.9216C170.818 79.0019 176.489 85.5538 184.122 85.5538C191.756 85.5538 197.121 78.9799 197.121 69.8117C197.121 60.6434 191.56 54.1794 184.122 54.1794Z" fill="#005033"/>
<path d="M222.966 41.0537H235.289L236.881 49.6943H237.078C240.763 42.6147 247.11 40.3062 252.061 40.3062C253.653 40.3062 254.94 40.526 256.14 40.8338V56.0483C248.092 54.2674 238.473 56.8838 238.473 70.2295V98.6797H222.988V41.0537H222.966Z" fill="#005033"/>
<path d="M280.698 71.087V98.7017H265.191V15H280.698V67.3273L300.938 41.0537H319.302L297.557 68.4706L320 98.7017H300.938L280.698 71.087Z" fill="#005033"/>
</g>
<defs>
<clipPath id="clip0_3306_1418">
<rect width="320" height="105.6" fill="white" transform="translate(0 15)"/>
</clipPath>
</defs>
</svg>
