<svg width="120" height="40" viewBox="0 0 120 40" fill="none" xmlns="http://www.w3.org/2000/svg">
<g clip-path="url(#clip0_3110_1067)">
<path d="M11.7285 18.2896C11.7285 15.9076 10.9106 14.7372 8.89858 14.7372C6.88659 14.7372 5.80698 16.4186 5.80698 18.372V31.3866H0V9.76709H4.49836L5.09542 12.7755H5.20992C6.28953 10.8221 8.0807 9.2231 10.9024 9.2231C13.7241 9.2231 15.6298 10.6325 16.6685 12.8992C18.0098 10.6325 19.9809 9.2231 22.59 9.2231C27.0965 9.2231 29.2148 12.3469 29.2148 17.0368V31.3783H23.4079V18.2896C23.4079 15.9076 22.6309 14.7372 20.578 14.7372C18.5251 14.7372 17.5273 16.3032 17.5273 18.1V31.3866H11.7203V18.2978L11.7285 18.2896Z" fill="#00AD59"/>
<path d="M39.8064 13.1299C41.1477 10.8221 43.5686 9.2231 46.5457 9.2231C51.3467 9.2231 55.7796 13.6822 55.7796 20.5562C55.7796 27.4303 51.4939 31.9306 46.693 31.9306C44.0103 31.9306 41.4094 30.4057 40.1417 28.2215V39.5959H34.3347V9.76709H39.2093L39.8064 13.1299ZM49.9318 20.5562C49.9318 17.1604 47.8135 14.696 44.9836 14.696C42.1537 14.696 40.0681 17.1192 40.0681 20.5974C40.0681 24.0757 42.1537 26.4577 44.9427 26.4577C47.7317 26.4577 49.9318 23.9603 49.9318 20.5562Z" fill="#005033"/>
<path d="M74.182 28.0155C72.8407 30.3233 70.4198 31.9223 67.3691 31.9223C62.7153 31.9223 58.2087 27.3891 58.2087 20.6304C58.2087 13.8717 62.7153 9.21486 67.3691 9.21486C70.4279 9.21486 72.8407 10.8221 74.182 13.1217L74.7791 9.75885H79.6537V31.3701H74.7791L74.182 28.0072V28.0155ZM69.0457 14.6877C66.1831 14.6877 64.0566 17.1851 64.0566 20.5892C64.0566 23.9932 66.1831 26.4494 69.0457 26.4494C71.9083 26.4494 73.9203 23.985 73.9203 20.548C73.9203 17.111 71.8347 14.6877 69.0457 14.6877Z" fill="#005033"/>
<path d="M83.6123 9.76709H88.2333L88.8304 13.0063H88.904C90.2862 10.3523 92.6663 9.48685 94.5229 9.48685C95.1199 9.48685 95.6025 9.56928 96.0523 9.68467V15.3883C93.0343 14.7207 89.4275 15.7015 89.4275 20.7046V31.3701H83.6205V9.76709H83.6123Z" fill="#005033"/>
<path d="M105.262 21.026V31.3783H99.4465V0H105.262V19.6166L112.852 9.76709H119.738L111.584 20.0452L120 31.3783H112.852L105.262 21.026Z" fill="#005033"/>
</g>
<defs>
<clipPath id="clip0_3110_1067">
<rect width="120" height="39.5876" fill="white"/>
</clipPath>
</defs>
</svg>
