<svg width="80" height="28" viewBox="0 0 80 28" fill="none" xmlns="http://www.w3.org/2000/svg">
<g clip-path="url(#clip0_3306_1457)">
<path d="M7.81897 12.9664C7.81897 11.3298 7.27372 10.5256 5.93239 10.5256C4.59106 10.5256 3.87132 11.6809 3.87132 13.0231V21.9652H0V7.11077H2.99891L3.39695 9.17781H3.47328C4.19302 7.83565 5.38713 6.737 7.26827 6.737C9.1494 6.737 10.4198 7.70539 11.1123 9.26275C12.0065 7.70539 13.3206 6.737 15.06 6.737C18.0643 6.737 19.4766 8.88333 19.4766 12.1056V21.9595H15.6052V12.9664C15.6052 11.3298 15.0872 10.5256 13.7186 10.5256C12.3501 10.5256 11.6848 11.6016 11.6848 12.8362V21.9652H7.81352V12.9721L7.81897 12.9664Z" fill="#00AD59"/>
<path d="M26.5377 9.42132C27.4319 7.83565 29.0458 6.737 31.0306 6.737C34.2312 6.737 37.1865 9.80075 37.1865 14.5238C37.1865 19.2469 34.3294 22.3389 31.1287 22.3389C29.3403 22.3389 27.6064 21.2912 26.7612 19.7905V27.6056H22.8899V7.11077H26.1396L26.5377 9.42132ZM33.2879 14.5238C33.2879 12.1906 31.8757 10.4973 29.9891 10.4973C28.1025 10.4973 26.7121 12.1623 26.7121 14.5521C26.7121 16.942 28.1025 18.5786 29.9619 18.5786C31.8212 18.5786 33.2879 16.8627 33.2879 14.5238Z" fill="#005033"/>
<path d="M49.4548 19.6489C48.5605 21.2346 46.9466 22.3333 44.9128 22.3333C41.8103 22.3333 38.8059 19.2186 38.8059 14.5748C38.8059 9.93102 41.8103 6.73135 44.9128 6.73135C46.952 6.73135 48.5605 7.83566 49.4548 9.41568L49.8528 7.10512H53.1025V21.9538H49.8528L49.4548 19.6433V19.6489ZM46.0306 10.4917C44.1222 10.4917 42.7045 12.2076 42.7045 14.5465C42.7045 16.8853 44.1222 18.573 46.0306 18.573C47.939 18.573 49.2803 16.8797 49.2803 14.5182C49.2803 12.1566 47.8899 10.4917 46.0306 10.4917Z" fill="#005033"/>
<path d="M55.7415 7.11079H58.8221L59.2202 9.3364H59.2693C60.1907 7.51287 61.7774 6.91824 63.0152 6.91824C63.4132 6.91824 63.7349 6.97487 64.0348 7.05416V10.973C62.0228 10.5143 59.6182 11.1882 59.6182 14.6258V21.9538H55.7469V7.11079H55.7415Z" fill="#005033"/>
<path d="M70.1744 14.8466V21.9595H66.2976V0.399994H70.1744V13.8782L75.2344 7.1108H79.8254L74.3892 14.1727L79.9999 21.9595H75.2344L70.1744 14.8466Z" fill="#005033"/>
</g>
<defs>
<clipPath id="clip0_3306_1457">
<rect width="80" height="27.2" fill="white" transform="translate(0 0.399994)"/>
</clipPath>
</defs>
</svg>
