<svg width="47" height="29" viewBox="0 0 47 29" fill="none" xmlns="http://www.w3.org/2000/svg">
<path d="M47 19.5167C47 16.7479 46.6328 14.0423 46.4859 13.7447C46.3758 13.5282 45.6689 12.96 44.0625 11.8868C42.4377 10.7955 42.4744 10.9579 42.1807 10.2454C42.4469 10.1642 42.7039 10.0109 42.86 9.99285C43.2088 9.95677 43.2271 10.2814 43.9523 10.2814C44.6775 10.2814 46.2473 10.0921 46.5686 9.77639C46.8898 9.46074 46.9908 9.35251 46.9908 9.07293C46.9908 8.79334 46.8256 8.21614 46.5135 7.87342C46.2014 7.53071 44.8703 7.35935 44.09 7.26015C43.3098 7.16094 43.1996 7.26015 42.9977 7.38641C42.6764 7.58482 42.658 9.3976 42.658 9.3976L41.8961 9.41564C41.4004 8.21614 40.7119 5.7991 39.6379 3.89613C38.4629 1.8218 37.2328 1.17245 36.7188 1.01011C36.2139 0.856788 35.7549 0.748562 32.3125 0.405847C28.7967 0.0450941 25.9969 0 23.5 0C21.0031 0 18.2033 0.0541129 14.6875 0.405847C11.2451 0.75758 10.7861 0.856788 10.2812 1.01011C9.77637 1.16343 8.53711 1.8218 7.36211 3.89613C6.28809 5.7991 5.59961 8.21614 5.10391 9.41564L4.34199 9.3976C4.34199 9.3976 4.33281 7.58482 4.00234 7.38641C3.80039 7.26015 3.69023 7.15192 2.90996 7.26015C2.12969 7.36837 0.798633 7.53071 0.486523 7.87342C0.174414 8.21614 0.00917969 8.79334 0.00917969 9.07293C0.00917969 9.35251 0.110156 9.46976 0.431445 9.77639C0.752734 10.0921 2.32246 10.2814 3.04766 10.2814C3.77285 10.2814 3.79121 9.95677 4.14004 9.99285C4.29609 10.0109 4.5623 10.1642 4.81934 10.2454C4.51641 10.9579 4.5623 10.7955 2.9375 11.8868C1.33105 12.9691 0.615039 13.5282 0.514062 13.7447C0.367188 14.0423 0 16.7479 0 19.5167C0 22.2855 0.201953 24.7747 0.201953 25.6585C0.201953 26.0283 0.201953 26.6777 0.28457 27.2999C0.339648 27.6697 0.422266 28.0305 0.569141 28.3101C0.816992 28.8061 1.04648 28.8512 1.99199 28.8061C3.20371 28.752 4.95703 28.8061 6.76543 28.8782C7.97715 28.9233 9.21641 28.9684 10.318 28.9955C13.0719 29.0496 12.2641 28.5987 13.4391 28.6167C14.6141 28.6347 19.2498 28.8241 23.4908 28.8241C27.7318 28.8241 32.3768 28.6347 33.5426 28.6167C34.7176 28.5987 33.9098 29.0496 36.6637 28.9955C37.7652 28.9774 39.0045 28.9233 40.2162 28.8782C42.0246 28.8151 43.7871 28.752 44.9897 28.8061C45.9352 28.8512 46.1646 28.8061 46.4125 28.3101C46.5502 28.0305 46.642 27.6697 46.6971 27.2999C46.7889 26.6777 46.7797 26.0283 46.7797 25.6585C46.798 24.7837 47 22.2855 47 19.5167ZM7.91289 5.86223C8.35352 4.85212 9.67539 2.82289 10.318 2.46214C10.474 2.37195 11.8418 1.94806 15.2658 1.72259C18.4145 1.51516 21.8936 1.43399 23.5092 1.43399C25.1248 1.43399 28.6039 1.51516 31.7525 1.72259C35.1674 1.94806 36.5535 2.36293 36.7004 2.46214C37.5266 3.0213 38.6648 4.85212 39.1055 5.86223C39.5461 6.87234 40.1336 8.85647 40.0234 9.12704C39.9133 9.3976 40.1336 9.53289 38.6465 9.41564C37.1686 9.30742 27.8879 9.19017 23.5184 9.19017C19.158 9.19017 9.87734 9.30742 8.39023 9.41564C6.90313 9.52387 7.12344 9.3976 7.01328 9.12704C6.88477 8.85647 7.47227 6.88135 7.91289 5.86223ZM11.291 17.1538C10.6301 17.3161 10.2354 17.6679 9.40918 17.6588C8.58301 17.6588 6.35234 17.2891 5.875 17.271C5.39766 17.253 4.97539 17.5867 4.72754 17.6498C4.47969 17.7129 3.99316 17.5416 3.25879 17.3161C2.52441 17.0907 2.09297 17.1538 1.8543 16.1707C1.60645 15.1967 1.8543 13.7988 1.8543 13.7988C3.44238 13.7266 4.97539 13.8709 7.84863 14.6646C10.7219 15.4582 12.3191 16.9824 12.3191 16.9824C12.3191 16.9824 11.952 16.9914 11.291 17.1538ZM32.8816 24.2606C31.5689 24.432 26.0703 24.4771 23.5 24.4771C20.9297 24.4771 15.4311 24.4229 14.1184 24.2606C12.7781 24.0893 11.034 22.511 12.2365 21.2573C13.8613 19.5528 13.5584 19.6069 17.2486 19.1379C20.4432 18.7321 22.8666 18.714 23.5 18.714C24.1242 18.714 26.5568 18.7411 29.7514 19.1379C33.4416 19.6069 33.1387 19.5528 34.7635 21.2573C35.966 22.511 34.2219 24.0893 32.8816 24.2606ZM45.1457 16.1798C44.8979 17.1538 44.4756 17.0997 43.7412 17.3251C43.0068 17.5506 42.5203 17.7129 42.2725 17.6588C42.0246 17.6047 41.6023 17.271 41.125 17.28C40.6477 17.2981 38.417 17.6679 37.5908 17.6679C36.7646 17.6679 36.3699 17.3251 35.709 17.1628C35.048 17.0005 34.6809 17.0005 34.6809 17.0005C34.6809 17.0005 36.2689 15.4673 39.1514 14.6826C42.0246 13.889 43.5576 13.7447 45.1457 13.8168C45.1457 13.7988 45.3936 15.1967 45.1457 16.1798Z" fill="white"/>
</svg>
