<svg width="51" height="50" viewBox="0 0 51 50" fill="none" xmlns="http://www.w3.org/2000/svg">
<path d="M26.0881 39.5929C26.6826 39.5929 28.5908 38.8016 31.3211 36.2813C35.6587 32.2956 40.7229 25.2913 40.7229 18.6973C40.7229 14.7993 39.1718 11.061 36.4107 8.30473C33.6496 5.54846 29.9048 4 26 4C22.0952 4 18.3504 5.54846 15.5893 8.30473C12.8282 11.061 11.2771 14.7993 11.2771 18.6973C11.2771 29.0572 23.3651 39.3731 26.0881 39.5929ZM42 40.9703C42 42.3404 36.356 45 26 45C15.644 45 10 42.3404 10 40.9703C10 40.0545 12.6422 38.3547 18.5284 37.4755C18.6307 37.4594 18.7298 37.4272 18.822 37.3803C21.5817 39.9812 24.2826 41.6517 25.9119 41.7763H26.1174C28.3193 41.7763 31.5266 39.0727 32.8183 37.8858C32.9798 37.7393 33.1413 37.5781 33.3028 37.4169C33.3581 37.4349 33.4145 37.4496 33.4716 37.4609C39.3578 38.3547 42 40.0545 42 40.9703Z" fill="white"/>
<path d="M23.7184 32C23.8584 32 23.9984 31.86 24.1384 31.58C24.2784 31.3 24.3484 30.84 24.3484 30.2V19.76C24.3484 19.12 24.2784 18.66 24.1384 18.38C24.0184 18.1 23.8884 17.96 23.7484 17.96H28.6084V30.2C28.6084 30.84 28.6684 31.3 28.7884 31.58C28.9284 31.86 29.0684 32 29.2084 32H23.7184ZM26.1484 15.68C25.4084 15.68 24.8184 15.48 24.3784 15.08C23.9384 14.68 23.7184 14.13 23.7184 13.43C23.7184 12.73 23.9284 12.18 24.3484 11.78C24.7884 11.38 25.3884 11.18 26.1484 11.18C26.9084 11.18 27.4984 11.38 27.9184 11.78C28.3584 12.18 28.5784 12.73 28.5784 13.43C28.5784 14.13 28.3584 14.68 27.9184 15.08C27.4984 15.48 26.9084 15.68 26.1484 15.68Z" fill="#1F2733"/>
</svg>
