<svg width="38" height="44" viewBox="0 0 38 44" fill="none" xmlns="http://www.w3.org/2000/svg">
<path d="M10.1428 0.0238973C9.9598 0.0762732 9.79856 0.185475 9.68284 0.335437C9.56712 0.485398 9.50303 0.668201 9.5 0.85695V6.83893C9.5 8.02027 10.1254 9.06668 11.0833 9.68166V14.2423C11.2749 16.9595 12.3326 18.8594 13.8051 20.0266C13.6309 21.3758 13.0483 22.1539 12.0729 22.8709C10.9202 23.7181 9.24192 24.377 7.47175 25.1253C5.70158 25.8752 3.82058 26.7757 2.375 28.3618C0.929417 29.9463 0 32.1678 0 35.3714V35.9597L0.495584 36.1558C5.02708 38.1059 7.31658 39.1052 8.45975 39.5884C9.03292 39.83 9.28942 39.965 9.45092 40.0293C9.53008 40.0606 9.56175 40.0528 9.64883 40.0779C9.66942 40.0779 9.70425 40.1203 9.747 40.1281H9.79608C9.9275 40.1799 10.203 40.2944 10.7366 40.5203C11.8513 40.991 14.0663 41.9244 18.5551 43.8541L18.9018 44L19.247 43.8541C21.9129 42.7281 24.5851 41.6169 27.2634 40.5203C27.8223 40.2913 28.1073 40.1328 28.253 40.0779H28.3021C28.3876 40.0622 28.4652 40.0403 28.5 40.0308C28.5681 40.0073 28.5697 40.012 28.6488 39.9806C28.8072 39.9163 29.127 39.7798 29.6875 39.5398C30.8085 39.0582 33.0442 38.0823 37.506 36.1558L38 35.9597V35.3714C38 32.2447 37.0611 30.042 35.625 28.5077C34.1889 26.975 32.3269 26.1513 30.5773 25.4202C28.8293 24.6876 27.1621 24.035 26.0253 23.1643C24.9106 22.3108 24.2678 21.3272 24.244 19.4383C25.783 18.1785 26.8502 16.4073 26.9167 14.2423V6.59419C26.9167 3.855 24.8235 1.59274 22.1667 1.59274H12.6667C12.1236 1.59274 11.6755 1.50488 11.4792 1.39663C11.2828 1.28838 11.2322 1.27112 11.2322 0.85695C11.2369 0.33139 10.6558 -0.112592 10.1428 0.0254662V0.0238973ZM19 22.907C20.2809 22.907 21.3196 23.9361 21.3196 25.2053C21.318 25.8329 21.0599 26.4604 20.6166 26.8871C20.6166 26.8871 20.0418 27.1664 20.2888 28.0826L22.1667 38.484L19 40.0528L15.8967 38.4683L17.8062 28.0826C18.0548 27.3233 17.5037 26.931 17.4657 26.8871C17.2199 26.6797 17.0224 26.422 16.8868 26.1316C16.7512 25.8413 16.6808 25.5252 16.6804 25.2053C16.6804 23.9361 17.7191 22.907 19 22.907Z" fill="white"/>
</svg>
