<svg width="41" height="39" viewBox="0 0 41 39" fill="none" xmlns="http://www.w3.org/2000/svg">
<path fill-rule="evenodd" clip-rule="evenodd" d="M13 17.5556C13.5304 17.5556 14.0391 17.3683 14.4142 17.0349C14.7893 16.7015 15 16.2493 15 15.7778C15 15.3063 14.7893 14.8541 14.4142 14.5207C14.0391 14.1873 13.5304 14 13 14C12.4696 14 11.9609 14.1873 11.5858 14.5207C11.2107 14.8541 11 15.3063 11 15.7778C11 16.2493 11.2107 16.7015 11.5858 17.0349C11.9609 17.3683 12.4696 17.5556 13 17.5556ZM16 19.8542L15.215 19.16C14.9803 18.9538 14.6635 18.8381 14.3335 18.8381C14.0035 18.8381 13.6867 18.9538 13.452 19.16L12.608 19.9058L10.68 18.2027C10.21 17.788 9.57469 17.5553 8.9125 17.5553C8.25032 17.5553 7.61498 17.788 7.145 18.2027L6 19.2133V22H16V19.8542Z" fill="#FFFFFE"/>
<mask id="mask0_3306_1446" style="mask-type:luminance" maskUnits="userSpaceOnUse" x="0" y="0" width="41" height="39">
<path d="M0 38.9999H40.6955V0H0V38.9999Z" fill="white"/>
</mask>
<g mask="url(#mask0_3306_1446)">
<path fill-rule="evenodd" clip-rule="evenodd" d="M5.12081 7.76592H36.3207V3.86593H5.12081V7.76592ZM24.6208 13.6159H36.3207V12.6409H24.6208V13.6159ZM24.6208 15.5659H36.3207V14.5909H24.6208V15.5659ZM20.7208 15.5659H23.6458V11.6659H20.7208V15.5659ZM20.7208 18.4909H36.3207V17.5159H20.7208V18.4909ZM20.7208 20.4409H36.3207V19.4659H20.7208V20.4409ZM20.7208 22.3909H36.3207V21.4159H20.7208V22.3909ZM20.7208 24.3409H36.3207V23.3659H20.7208V24.3409ZM24.4989 27.2659H36.3207V26.2909H24.4989V27.2659ZM20.7208 29.2159H36.3207V28.2409H20.7208V29.2159ZM20.7208 31.1659H36.3207V30.1909H20.7208V31.1659ZM20.7208 33.1159H36.3207V32.1409H20.7208V33.1159ZM5.12081 23.3659H16.8208V11.6659H5.12081V23.3659ZM5.12081 27.2659H16.8208V26.2909H5.12081V27.2659ZM5.12081 29.2159H16.8208V28.2409H5.12081V29.2159ZM5.12081 31.1659H16.8208V30.1909H5.12081V31.1659ZM5.12081 33.1159H16.8208V32.1409H5.12081V33.1159ZM36.3207 -0.0340576H5.12081C4.08647 -0.0340576 3.0945 0.376833 2.36311 1.10822C1.63172 1.83961 1.22083 2.83159 1.22083 3.86593V35.0658C1.22083 36.1002 1.63172 37.0922 2.36311 37.8236C3.0945 38.5549 4.08647 38.9658 5.12081 38.9658H36.3207C37.3551 38.9658 38.347 38.5549 39.0784 37.8236C39.8098 37.0922 40.2207 36.1002 40.2207 35.0658V3.86593C40.2207 2.83159 39.8098 1.83961 39.0784 1.10822C38.347 0.376833 37.3551 -0.0340576 36.3207 -0.0340576Z" fill="#FFFFFE"/>
</g>
</svg>
