<svg width="120" height="120" viewBox="0 0 120 120" fill="none" xmlns="http://www.w3.org/2000/svg">
<mask id="mask0_3518_18195" style="mask-type:alpha" maskUnits="userSpaceOnUse" x="0" y="0" width="120" height="120">
<rect width="120" height="120" fill="#D9D9D9"/>
</mask>
<g mask="url(#mask0_3518_18195)">
<path d="M60 75.375L75.375 60L60 44.625L57.625 47L68.875 58.25H43.25V61.75H68.875L57.625 73L60 75.375ZM60.0218 103.5C54.0073 103.5 48.3517 102.359 43.0553 100.076C37.7587 97.7935 33.1514 94.6956 29.2334 90.7826C25.3155 86.8695 22.2137 82.2681 19.9282 76.9782C17.6427 71.6884 16.5 66.0363 16.5 60.0218C16.5 54.0073 17.6413 48.3518 19.9239 43.0553C22.2065 37.7587 25.3044 33.1514 29.2174 29.2335C33.1305 25.3155 37.7319 22.2138 43.0218 19.9283C48.3116 17.6428 53.9637 16.5 59.9782 16.5C65.9928 16.5 71.6483 17.6413 76.9448 19.9239C82.2413 22.2065 86.8486 25.3044 90.7665 29.2174C94.6845 33.1305 97.7862 37.7319 100.072 43.0218C102.357 48.3116 103.5 53.9637 103.5 59.9782C103.5 65.9928 102.359 71.6483 100.076 76.9448C97.7935 82.2413 94.6956 86.8486 90.7826 90.7666C86.8695 94.6845 82.2681 97.7862 76.9782 100.072C71.6884 102.357 66.0363 103.5 60.0218 103.5ZM60 100C71.1667 100 80.625 96.125 88.375 88.375C96.125 80.625 100 71.1667 100 60C100 48.8333 96.125 39.375 88.375 31.625C80.625 23.875 71.1667 20 60 20C48.8333 20 39.375 23.875 31.625 31.625C23.875 39.375 20 48.8333 20 60C20 71.1667 23.875 80.625 31.625 88.375C39.375 96.125 48.8333 100 60 100Z" fill="white"/>
</g>
</svg>
