<svg width="43" height="42" viewBox="0 0 43 42" fill="none" xmlns="http://www.w3.org/2000/svg">
<path d="M10.3572 21V13.6736C10.3789 12.2335 10.6846 10.8118 11.2568 9.49C11.8289 8.16823 12.6563 6.97235 13.6914 5.97086C14.7265 4.9694 15.9491 4.182 17.289 3.65382C18.629 3.12564 20.06 2.86705 21.5 2.89287C22.9401 2.86705 24.3711 3.12564 25.711 3.65382C27.051 4.182 28.2736 4.9694 29.3087 5.97086C30.3438 6.97235 31.1712 8.16823 31.7434 9.49C32.3153 10.8118 32.6212 12.2335 32.6429 13.6736V21" stroke="white" stroke-width="3" stroke-linecap="round" stroke-linejoin="round"/>
<path d="M6.17854 16.8213H8.96425C9.33366 16.8213 9.68795 16.968 9.94914 17.2293C10.2104 17.4904 10.3571 17.8447 10.3571 18.2141V26.5713C10.3571 26.9407 10.2104 27.295 9.94914 27.5562C9.68795 27.8174 9.33366 27.9641 8.96425 27.9641H6.17854C5.43971 27.9641 4.73116 27.6706 4.20874 27.1482C3.68632 26.6258 3.39282 25.9173 3.39282 25.1784V19.607C3.39282 18.8682 3.68632 18.1596 4.20874 17.6372C4.73116 17.1148 5.43971 16.8213 6.17854 16.8213Z" stroke="white" stroke-width="3" stroke-linecap="round" stroke-linejoin="round"/>
<path d="M36.8214 27.9641H34.0357C33.6663 27.9641 33.312 27.8174 33.0507 27.5562C32.7896 27.295 32.6428 26.9407 32.6428 26.5713V18.2141C32.6428 17.8447 32.7896 17.4904 33.0507 17.2293C33.312 16.968 33.6663 16.8213 34.0357 16.8213H36.8214C37.5602 16.8213 38.2689 17.1148 38.7912 17.6372C39.3135 18.1596 39.6071 18.8682 39.6071 19.607V25.1784C39.6071 25.9173 39.3135 26.6258 38.7912 27.1482C38.2689 27.6706 37.5602 27.9641 36.8214 27.9641Z" stroke="white" stroke-width="3" stroke-linecap="round" stroke-linejoin="round"/>
<path d="M27.0713 35.6249C28.5489 35.6249 29.9659 35.038 31.0108 33.9931C32.0558 32.9481 32.6427 31.531 32.6427 30.0535V23.7856" stroke="white" stroke-width="3" stroke-linecap="round" stroke-linejoin="round"/>
<path d="M27.0713 35.625C27.0713 36.5484 26.7044 37.4343 26.0514 38.0873C25.3984 38.7402 24.5127 39.1071 23.5892 39.1071H19.4106C18.4871 39.1071 17.6014 38.7402 16.9484 38.0873C16.2953 37.4343 15.9285 36.5484 15.9285 35.625C15.9285 34.7015 16.2953 33.8156 16.9484 33.1627C17.6014 32.5097 18.4871 32.1428 19.4106 32.1428H23.5892C24.5127 32.1428 25.3984 32.5097 26.0514 33.1627C26.7044 33.8156 27.0713 34.7015 27.0713 35.625Z" stroke="white" stroke-width="3" stroke-linecap="round" stroke-linejoin="round"/>
</svg>
