<svg width="38" height="38" viewBox="0 0 38 38" fill="none" xmlns="http://www.w3.org/2000/svg">
<path d="M25.3011 27.8215V32.8623C25.3011 33.5307 25.0356 34.1719 24.5629 34.6445C24.0902 35.1171 23.4492 35.3827 22.7807 35.3827H5.13784C4.46938 35.3827 3.82831 35.1171 3.35564 34.6445C2.88297 34.1719 2.61743 33.5307 2.61743 32.8623V5.13784C2.61743 4.46938 2.88297 3.82831 3.35564 3.35564C3.82831 2.88297 4.46938 2.61743 5.13784 2.61743H22.7807C23.4492 2.61743 24.0902 2.88297 24.5629 3.35564C25.0356 3.82831 25.3011 4.46938 25.3011 5.13784V10.1787" stroke="white" stroke-width="3" stroke-linecap="round" stroke-linejoin="round"/>
<path d="M17.74 19H35.3828" stroke="white" stroke-width="3" stroke-linecap="round" stroke-linejoin="round"/>
<path d="M30.342 13.9592L35.3829 19L30.342 24.0409" stroke="white" stroke-width="3" stroke-linecap="round" stroke-linejoin="round"/>
</svg>
