<svg width="48" height="48" viewBox="0 0 48 48" fill="none" xmlns="http://www.w3.org/2000/svg">
<mask id="mask0_3306_2273" style="mask-type:alpha" maskUnits="userSpaceOnUse" x="0" y="0" width="48" height="48">
<path d="M0 0H48V48H0V0Z" fill="#D9D9D9"/>
</mask>
<g mask="url(#mask0_3306_2273)">
<path d="M4.15137 32.6001H0.670898L6.06348 17.0454H10.21L15.5811 32.6001H12.1221L10.9619 29.0122H5.33301L4.15137 32.6001ZM6.14941 26.4985H10.1455L8.19043 20.5474H8.08301L6.14941 26.4985ZM14.8291 19.7095V17.0454H27.5693V19.7095H22.7998V32.6001H19.5986V19.7095H14.8291ZM29.5674 17.0454H33.5635L37.8818 27.5942H38.0537L42.3721 17.0454H46.3682V32.6001H43.2314V22.4165H43.1025L39.042 32.5356H36.8936L32.833 22.3735H32.7041V32.6001H29.5674V17.0454Z" fill="white"/>
</g>
</svg>
