<svg width="48" height="48" viewBox="0 0 48 48" fill="none" xmlns="http://www.w3.org/2000/svg">
<mask id="mask0_3306_2259" style="mask-type:alpha" maskUnits="userSpaceOnUse" x="0" y="0" width="48" height="48">
<rect width="48" height="48" fill="#D9D9D9"/>
</mask>
<g mask="url(#mask0_3306_2259)">
<path d="M11.9118 43V28.375H9V17.65C9 16.5775 9.38015 15.6594 10.1404 14.8956C10.9007 14.1319 11.8147 13.75 12.8824 13.75H18.7059C19.7735 13.75 20.6875 14.1319 21.4478 14.8956C22.2081 15.6594 22.5882 16.5775 22.5882 17.65V28.375H19.6765V43H11.9118ZM15.7941 11.8C14.7265 11.8 13.8125 11.4181 13.0522 10.6544C12.2919 9.89063 11.9118 8.9725 11.9118 7.9C11.9118 6.8275 12.2919 5.90938 13.0522 5.14563C13.8125 4.38188 14.7265 4 15.7941 4C16.8618 4 17.7757 4.38188 18.536 5.14563C19.2963 5.90938 19.6765 6.8275 19.6765 7.9C19.6765 8.9725 19.2963 9.89063 18.536 10.6544C17.7757 11.4181 16.8618 11.8 15.7941 11.8ZM30.3529 43V31.3H24.5294L29.4794 16.3825C29.7382 15.5375 30.2154 14.8875 30.911 14.4325C31.6066 13.9775 32.3912 13.75 33.2647 13.75C34.1382 13.75 34.9228 13.9775 35.6184 14.4325C36.314 14.8875 36.7912 15.5375 37.05 16.3825L42 31.3H36.1765V43H30.3529ZM33.2647 11.8C32.1971 11.8 31.2831 11.4181 30.5228 10.6544C29.7625 9.89063 29.3824 8.9725 29.3824 7.9C29.3824 6.8275 29.7625 5.90938 30.5228 5.14563C31.2831 4.38188 32.1971 4 33.2647 4C34.3324 4 35.2463 4.38188 36.0066 5.14563C36.7669 5.90938 37.1471 6.8275 37.1471 7.9C37.1471 8.9725 36.7669 9.89063 36.0066 10.6544C35.2463 11.4181 34.3324 11.8 33.2647 11.8Z" fill="white"/>
</g>
</svg>
