<svg width="49" height="48" viewBox="0 0 49 48" fill="none" xmlns="http://www.w3.org/2000/svg">
<mask id="mask0_3306_2266" style="mask-type:alpha" maskUnits="userSpaceOnUse" x="0" y="0" width="49" height="48">
<rect x="0.5" width="48" height="48" fill="#D9D9D9"/>
</mask>
<g mask="url(#mask0_3306_2266)">
<path d="M23.5 10.8C22.4 10.8 21.4583 10.4181 20.675 9.65438C19.8917 8.89063 19.5 7.9725 19.5 6.9C19.5 5.8275 19.8917 4.90938 20.675 4.14563C21.4583 3.38188 22.4 3 23.5 3C24.6 3 25.5417 3.38188 26.325 4.14563C27.1083 4.90938 27.5 5.8275 27.5 6.9C27.5 7.9725 27.1083 8.89063 26.325 9.65438C25.5417 10.4181 24.6 10.8 23.5 10.8ZM33.5 42V32.25H23.5C22.4 32.25 21.4583 31.8681 20.675 31.1044C19.8917 30.3406 19.5 29.4225 19.5 28.35V16.65C19.5 15.5775 19.8917 14.6594 20.675 13.8956C21.4583 13.1319 22.4 12.75 23.5 12.75C24.3 12.75 24.9917 12.9206 25.575 13.2619C26.1583 13.6031 26.7833 14.1475 27.45 14.895C29.2833 17.04 30.9417 18.5106 32.425 19.3069C33.9083 20.1031 35.6 20.5175 37.5 20.55V24.45C35.7333 24.45 33.95 24.0763 32.15 23.3288C30.35 22.5813 28.8 21.6875 27.5 20.6475V27.375H33.5C34.6 27.375 35.5417 27.7569 36.325 28.5206C37.1083 29.2844 37.5 30.2025 37.5 31.275V42H33.5ZM19.5 42C16.7333 42 14.375 41.0494 12.425 39.1481C10.475 37.2469 9.5 34.9475 9.5 32.25C9.5 29.91 10.2583 27.8463 11.775 26.0588C13.2917 24.2712 15.2 23.15 17.5 22.695V26.6925C16.3333 27.1475 15.375 27.8706 14.625 28.8619C13.875 29.8531 13.5 30.9825 13.5 32.25C13.5 33.875 14.0833 35.2563 15.25 36.3937C16.4167 37.5312 17.8333 38.1 19.5 38.1C20.8 38.1 21.9583 37.7344 22.975 37.0031C23.9917 36.2719 24.7333 35.3375 25.2 34.2H29.3C28.8333 36.4425 27.6833 38.3031 25.85 39.7819C24.0167 41.2606 21.9 42 19.5 42Z" fill="white"/>
</g>
</svg>
