<svg width="34" height="47" viewBox="0 0 34 47" fill="none" xmlns="http://www.w3.org/2000/svg">
<rect x="0.75" y="13.75" width="32.5" height="32.5" stroke="white" stroke-width="1.5"/>
<mask id="mask0_3306_2249" style="mask-type:alpha" maskUnits="userSpaceOnUse" x="4" y="17" width="25" height="27">
<rect x="4" y="17" width="25" height="27" fill="#D9D9D9"/>
</mask>
<g mask="url(#mask0_3306_2249)">
<path d="M8.85294 43V33.625H7V26.75C7 26.0625 7.24191 25.474 7.72574 24.9844C8.20956 24.4948 8.79118 24.25 9.47059 24.25H13.1765C13.8559 24.25 14.4375 24.4948 14.9213 24.9844C15.4051 25.474 15.6471 26.0625 15.6471 26.75V33.625H13.7941V43H8.85294ZM11.3235 23C10.6441 23 10.0625 22.7552 9.57868 22.2656C9.09485 21.776 8.85294 21.1875 8.85294 20.5C8.85294 19.8125 9.09485 19.224 9.57868 18.7344C10.0625 18.2448 10.6441 18 11.3235 18C12.0029 18 12.5846 18.2448 13.0684 18.7344C13.5522 19.224 13.7941 19.8125 13.7941 20.5C13.7941 21.1875 13.5522 21.776 13.0684 22.2656C12.5846 22.7552 12.0029 23 11.3235 23ZM20.5882 43V35.5H16.8824L20.0324 25.9375C20.1971 25.3958 20.5007 24.9792 20.9434 24.6875C21.386 24.3958 21.8853 24.25 22.4412 24.25C22.9971 24.25 23.4963 24.3958 23.939 24.6875C24.3816 24.9792 24.6853 25.3958 24.85 25.9375L28 35.5H24.2941V43H20.5882ZM22.4412 23C21.7618 23 21.1801 22.7552 20.6963 22.2656C20.2125 21.776 19.9706 21.1875 19.9706 20.5C19.9706 19.8125 20.2125 19.224 20.6963 18.7344C21.1801 18.2448 21.7618 18 22.4412 18C23.1206 18 23.7022 18.2448 24.186 18.7344C24.6699 19.224 24.9118 19.8125 24.9118 20.5C24.9118 21.1875 24.6699 21.776 24.186 22.2656C23.7022 22.7552 23.1206 23 22.4412 23Z" fill="white"/>
</g>
<path d="M23.5 11L18 5.5L19.2833 4.21667L22.5833 7.51667V0H24.4167V7.51667L27.7167 4.21667L29 5.5L23.5 11Z" fill="white"/>
<path d="M10.5 0L5 5.5L6.28333 6.78333L9.58333 3.48333V11H11.4167V3.48333L14.7167 6.78333L16 5.5L10.5 0Z" fill="white"/>
</svg>
