<svg width="30" height="30" viewBox="0 0 30 30" fill="none" xmlns="http://www.w3.org/2000/svg">
<mask id="mask0_3540_860" style="mask-type:alpha" maskUnits="userSpaceOnUse" x="0" y="0" width="30" height="30">
<rect width="30" height="30" fill="#D9D9D9"/>
</mask>
<g mask="url(#mask0_3540_860)">
<path d="M15 27.5C13.4375 27.5 11.974 27.2031 10.6094 26.6094C9.24479 26.0156 8.05729 25.2135 7.04688 24.2031C6.03646 23.1927 5.23438 22.0052 4.64063 20.6406C4.04688 19.276 3.75 17.8125 3.75 16.25H6.25C6.25 18.6875 7.09896 20.7552 8.79688 22.4531C10.4948 24.151 12.5625 25 15 25C17.4375 25 19.5052 24.151 21.2031 22.4531C22.901 20.7552 23.75 18.6875 23.75 16.25C23.75 13.8125 22.901 11.7448 21.2031 10.0469C19.5052 8.34896 17.4375 7.5 15 7.5H14.8125L16.75 9.4375L15 11.25L10 6.25L15 1.25L16.75 3.0625L14.8125 5H15C16.5625 5 18.026 5.29688 19.3906 5.89062C20.7552 6.48438 21.9427 7.28646 22.9531 8.29688C23.9635 9.30729 24.7656 10.4948 25.3594 11.8594C25.9531 13.224 26.25 14.6875 26.25 16.25C26.25 17.8125 25.9531 19.276 25.3594 20.6406C24.7656 22.0052 23.9635 23.1927 22.9531 24.2031C21.9427 25.2135 20.7552 26.0156 19.3906 26.6094C18.026 27.2031 16.5625 27.5 15 27.5Z" fill="white"/>
</g>
</svg>
