<svg width="88" height="88" viewBox="0 0 88 88" fill="none" xmlns="http://www.w3.org/2000/svg">
<path d="M44 59.375L59.375 44L44 28.625L41.625 31L52.875 42.25H27.25V45.75H52.875L41.625 57L44 59.375ZM44.0218 87.5C38.0073 87.5 32.3517 86.3587 27.0553 84.0761C21.7587 81.7935 17.1514 78.6956 13.2334 74.7826C9.31546 70.8695 6.21375 66.2681 3.92825 60.9782C1.64275 55.6884 0.5 50.0363 0.5 44.0218C0.5 38.0073 1.64129 32.3518 3.92388 27.0553C6.20654 21.7587 9.30437 17.1514 13.2174 13.2335C17.1305 9.3155 21.7319 6.21375 27.0218 3.92825C32.3116 1.64275 37.9637 0.5 43.9782 0.5C49.9928 0.5 55.6483 1.64129 60.9448 3.92387C66.2413 6.20654 70.8486 9.30438 74.7665 13.2174C78.6845 17.1305 81.7862 21.7319 84.0717 27.0218C86.3572 32.3116 87.5 37.9637 87.5 43.9782C87.5 49.9928 86.3587 55.6483 84.0761 60.9448C81.7935 66.2413 78.6956 70.8486 74.7826 74.7666C70.8695 78.6845 66.2681 81.7862 60.9782 84.0717C55.6884 86.3572 50.0363 87.5 44.0218 87.5ZM44 84C55.1667 84 64.625 80.125 72.375 72.375C80.125 64.625 84 55.1667 84 44C84 32.8333 80.125 23.375 72.375 15.625C64.625 7.875 55.1667 4 44 4C32.8333 4 23.375 7.875 15.625 15.625C7.875 23.375 4 32.8333 4 44C4 55.1667 7.875 64.625 15.625 72.375C23.375 80.125 32.8333 84 44 84Z" fill="#555555"/>
</svg>
