<svg width="76" height="76" viewBox="0 0 76 76" fill="none" xmlns="http://www.w3.org/2000/svg">
<mask id="mask0_3059_7755" style="mask-type:alpha" maskUnits="userSpaceOnUse" x="0" y="0" width="76" height="76">
<rect width="76" height="76" fill="#D9D9D9"/>
</mask>
<g mask="url(#mask0_3059_7755)">
<path d="M38.0141 76C32.7594 76 27.819 75.0029 23.1931 73.0087C18.5672 71.0144 14.5432 68.3079 11.1212 64.8891C7.69933 61.4704 4.99031 57.4502 2.99419 52.8287C0.998063 48.207 0 43.2688 0 38.0141C0 32.7594 0.997114 27.819 2.99134 23.1931C4.98564 18.5672 7.69215 14.5432 11.1109 11.1212C14.5296 7.69933 18.5498 4.99032 23.1713 2.99419C27.793 0.998066 32.7312 0 37.9859 0C43.2406 0 48.181 0.997112 52.8069 2.99134C57.4328 4.98563 61.4568 7.69215 64.8788 11.1109C68.3007 14.5296 71.0097 18.5498 73.0058 23.1713C75.0019 27.793 76 32.7312 76 37.9859C76 43.2406 75.0029 48.181 73.0087 52.8069C71.0144 57.4328 68.3079 61.4568 64.8891 64.8788C61.4704 68.3007 57.4502 71.0097 52.8287 73.0058C48.207 75.0019 43.2688 76 38.0141 76ZM38 71.7778C47.4296 71.7778 55.4167 68.5056 61.9611 61.9611C68.5056 55.4167 71.7778 47.4296 71.7778 38C71.7778 28.5704 68.5056 20.5833 61.9611 14.0389C55.4167 7.49444 47.4296 4.22222 38 4.22222C28.5704 4.22222 20.5833 7.49444 14.0389 14.0389C7.49444 20.5833 4.22222 28.5704 4.22222 38C4.22222 47.4296 7.49444 55.4167 14.0389 61.9611C20.5833 68.5056 28.5704 71.7778 38 71.7778Z" fill="#FB4F4F"/>
<path d="M38.0001 40.9884L27.0223 51.9662L24.0343 48.9781L35.012 38.0003L24.0343 27.0226L27.0223 24.0345L38.0001 35.0123L48.9779 24.0345L51.9659 27.0226L40.9882 38.0003L51.9659 48.9781L48.9779 51.9662L38.0001 40.9884Z" fill="#FB4F4F"/>
</g>
</svg>
