<svg width="19" height="21" viewBox="0 0 19 21" fill="none" xmlns="http://www.w3.org/2000/svg">
<path d="M9.5 21C8.25 21 7.07917 20.7625 5.9875 20.2875C4.89583 19.8125 3.94583 19.1708 3.1375 18.3625C2.32917 17.5542 1.6875 16.6042 1.2125 15.5125C0.7375 14.4208 0.5 13.25 0.5 12H2.5C2.5 13.95 3.17917 15.6042 4.5375 16.9625C5.89583 18.3208 7.55 19 9.5 19C11.45 19 13.1042 18.3208 14.4625 16.9625C15.8208 15.6042 16.5 13.95 16.5 12C16.5 10.05 15.8208 8.39583 14.4625 7.0375C13.1042 5.67917 11.45 5 9.5 5H9.35L10.9 6.55L9.5 8L5.5 4L9.5 0L10.9 1.45L9.35 3H9.5C10.75 3 11.9208 3.2375 13.0125 3.7125C14.1042 4.1875 15.0542 4.82917 15.8625 5.6375C16.6708 6.44583 17.3125 7.39583 17.7875 8.4875C18.2625 9.57917 18.5 10.75 18.5 12C18.5 13.25 18.2625 14.4208 17.7875 15.5125C17.3125 16.6042 16.6708 17.5542 15.8625 18.3625C15.0542 19.1708 14.1042 19.8125 13.0125 20.2875C11.9208 20.7625 10.75 21 9.5 21Z" fill="#9E9E9E"/>
</svg>
